<svg id="Layer_1" data-name="Layer 1" xmlns="http://www.w3.org/2000/svg" viewBox="0 0 1088.5 759.69"><defs><style>.cls-1,.cls-2,.cls-3{fill:none;stroke:#000;stroke-miterlimit:10;}.cls-1{stroke-width:0.07px;}.cls-2{stroke-width:1.13px;}.cls-3{stroke-width:1.13px;}</style></defs><path class="cls-1" d="M1065.7,5.67h-39v688.5H62.93V5.67h-39A17.71,17.71,0,0,0,6.23,23.37V736.31A17.71,17.71,0,0,0,23.94,754H1065.7a17.71,17.71,0,0,0,17.7-17.71V23.37A17.71,17.71,0,0,0,1065.7,5.67Z"/><path class="cls-2" d="M448.77,707.55H458l9.88,19.68,9.8-19.68H487v31.54h-7.82V718.73l-10.32,20.79h-2L456.69,719v20.07h-7.92Z"/><path class="cls-2" d="M492.93,707.55h13.15c8.45,0,13.44,3.26,13.44,10.13a8.91,8.91,0,0,1-6.43,8.83l7.35,12.58h-8.88L505.51,728h-4.37v11.09h-8.21Zm13.2,14.78c2.83,0,5.38-1,5.38-4.51,0-3.12-2.11-4.42-5.43-4.42h-4.94v8.93Z"/><path class="cls-2" d="M528.4,729.92c3.17,0,5.23,1.92,5.23,4.8s-2.06,4.75-5.23,4.75-5.13-1.73-5.13-4.75S525.14,729.92,528.4,729.92Z"/><path class="cls-2" d="M551.83,707.12c10.75,0,16,6.91,16,15.79,0,6.14-2.11,11.14-6.29,14l2.55,3.89-4.66,2.59L556.68,739a21.15,21.15,0,0,1-4.81.53c-11.32,0-16.51-7.15-16.51-16.08C535.36,713.6,540.64,707.12,551.83,707.12Zm2.49,18.57,3.22,5c1.25-1.88,1.82-4.56,1.82-7.78,0-5.76-2.44-9.7-7.53-9.7-5.86,0-8,3.94-8,10.23,0,5.85,2.45,10.08,8,10.08a6.28,6.28,0,0,0,1.39-.1L550,728.29Z"/><path class="cls-2" d="M571.41,707.55h8.16v18.91c0,4.27,1.82,7.06,6.1,7.06,4.56,0,6-2.93,6-7.11V707.55h8.17V726.7c0,7.87-5,12.82-14.21,12.82-8.93,0-14.26-4.32-14.26-12.82Z"/><path class="cls-2" d="M605.49,707.55h8.16v31.54h-8.16Z"/><path class="cls-2" d="M632.32,714.36H618.83v-6.81h26l-15,24.77h13.58v6.77h-26Z"/><path d="M1041.28,30.69a7.58,7.58,0,0,1-3.62.78c-4.29,0-6.59-2.43-6.59-6.07s2.32-6.09,6.37-6.09a8,8,0,0,1,3.89,1V23a6.38,6.38,0,0,0-3.6-1.33c-2,0-3.37,1.4-3.37,3.67a3.38,3.38,0,0,0,3.44,3.71,5.73,5.73,0,0,0,3.48-1.06Z"/><path d="M1048.42,19.31c4,0,6,2.6,6,5.93,0,3.67-2,6.23-6,6.23-4.25,0-6.19-2.69-6.19-6C1042.25,21.74,1044.23,19.31,1048.42,19.31Zm0,9.91c2,0,2.83-1.61,2.83-4,0-2.16-.92-3.64-2.83-3.64-2.19,0-3,1.48-3,3.84C1045.43,27.63,1046.35,29.22,1048.42,29.22Z"/><path d="M1055.93,19.48h4.36c4.93,0,6.6,2.95,6.6,5.78,0,3.74-2.07,6-6.66,6h-4.3Zm4.32,9.63c2.48,0,3.53-1.15,3.53-3.85,0-2.24-1.14-3.57-3.53-3.57H1059v7.42Z"/><path d="M1068.4,19.48h8.84v2.23h-5.76v2.18h5.76V26h-5.76v3.11h5.76v2.24h-8.84Z"/><path d="M1035.7,40.38l12.14-5.09v2.76l-8.59,3.58,8.59,3.52V48l-12.14-5.11Z"/><path d="M1048.34,40.38l12.15-5.09v2.76l-8.6,3.58,8.6,3.52V48l-12.15-5.11Z"/><path d="M1061,40.38l12.14-5.09v2.76l-8.59,3.58,8.59,3.52V48L1061,42.85Z"/><line class="cls-3" x1="1026.71" y1="643.46" x2="1032.38" y2="643.46"/><line class="cls-3" x1="1026.71" y1="597.54" x2="1032.38" y2="597.54"/><line class="cls-3" x1="1026.71" y1="551.62" x2="1032.38" y2="551.62"/><line class="cls-3" x1="1026.71" y1="505.7" x2="1032.38" y2="505.7"/><line class="cls-3" x1="1026.71" y1="459.78" x2="1032.38" y2="459.78"/><line class="cls-3" x1="1026.71" y1="413.86" x2="1032.38" y2="413.86"/><line class="cls-3" x1="1026.71" y1="367.94" x2="1032.38" y2="367.94"/><line class="cls-3" x1="1026.71" y1="322.02" x2="1032.38" y2="322.02"/><line class="cls-3" x1="1026.71" y1="276.09" x2="1032.38" y2="276.09"/><line class="cls-3" x1="1026.71" y1="230.17" x2="1032.38" y2="230.17"/><line class="cls-3" x1="1026.71" y1="184.25" x2="1032.38" y2="184.25"/><line class="cls-3" x1="1026.71" y1="138.33" x2="1032.38" y2="138.33"/><line class="cls-3" x1="1026.71" y1="92.41" x2="1032.38" y2="92.41"/><path class="cls-2" d="M1036.55,653.79l3-3.1c5-5.16,7.23-7.94,7.23-10.63,0-2.08-1.15-3.26-3.42-3.26a12.32,12.32,0,0,0-6.34,2.34v-4.8a17.36,17.36,0,0,1,7.23-1.64c5.41,0,8,2.95,8,6.88s-3.55,7.2-6.78,10.31h7.45V654h-16.38Z"/><path class="cls-2" d="M1059.91,642.24a5.91,5.91,0,0,1,5.06-2.66c5,0,7.58,3.11,7.58,7,0,4.29-3.36,7.74-8.54,7.74-5.92,0-9-4.06-9-9.95,0-6.94,3.64-11.68,10.43-11.68a16.73,16.73,0,0,1,6.11,1.12v4.55a11.6,11.6,0,0,0-5.76-1.6A5.62,5.62,0,0,0,1059.91,642.24Zm.29,3.07c.09,3.07,1.41,5,3.71,5a3.48,3.48,0,0,0,3.46-3.61,3.31,3.31,0,0,0-3.4-3.62A4.3,4.3,0,0,0,1060.2,645.31Z"/><path class="cls-2" d="M1037.13,607.85l3-3.1c5-5.16,7.23-7.94,7.23-10.63,0-2.08-1.15-3.26-3.43-3.26a12.26,12.26,0,0,0-6.33,2.34v-4.8a17.36,17.36,0,0,1,7.23-1.64c5.41,0,8,3,8,6.88s-3.55,7.2-6.79,10.31h7.46V608h-16.38Z"/><path class="cls-2" d="M1056,602.67a18.66,18.66,0,0,0,6.59,1.69c2.65,0,3.77-1.31,3.77-3.1s-1.34-3-4.12-3a27.44,27.44,0,0,0-5.51.67l1.38-11.93h13.09v4.16h-9.57l-.39,3.29a17.58,17.58,0,0,1,2.34-.15c4.51,0,8.22,1.79,8.22,6.78,0,4.29-3.71,7.26-8.8,7.26a21.56,21.56,0,0,1-7-1.31Z"/><path class="cls-2" d="M1036.36,561.91l3-3.1c5-5.15,7.23-7.94,7.23-10.63,0-2.08-1.15-3.26-3.42-3.26a12.29,12.29,0,0,0-6.34,2.34v-4.8a17.36,17.36,0,0,1,7.23-1.64c5.41,0,8,2.95,8,6.88s-3.55,7.2-6.78,10.31h7.45v4.09h-16.38Z"/><path class="cls-2" d="M1054,553.3l9.18-12.22h5.92v11.26h4V556h-4v6.08h-5.24V556H1054Zm9.82-1v-6.78l-5,6.78Z"/><path class="cls-2" d="M1037.19,516l3-3.1c5-5.16,7.23-7.94,7.23-10.63,0-2.08-1.15-3.26-3.42-3.26a12.32,12.32,0,0,0-6.34,2.34v-4.8a17.36,17.36,0,0,1,7.23-1.64c5.41,0,8,2.95,8,6.88s-3.55,7.2-6.78,10.31h7.45v4.09h-16.38Z"/><path class="cls-2" d="M1071.75,495.56l-6.14,7.61c2.75.48,6.27,2.11,6.27,6.4,0,3.9-3.2,6.91-8.71,6.91a14.83,14.83,0,0,1-6.88-1.57V510a11.31,11.31,0,0,0,6.72,2.46c2.15,0,3.46-1,3.46-2.88,0-2.49-3.52-3.49-7.2-3.55l4.86-6.75h-7.84v-4.16h15.46Z"/><path class="cls-2" d="M1037,470l3-3.1c5-5.15,7.23-7.94,7.23-10.63,0-2.08-1.15-3.26-3.42-3.26a12.32,12.32,0,0,0-6.34,2.34v-4.8a17.36,17.36,0,0,1,7.23-1.64c5.41,0,8,2.95,8,6.88s-3.55,7.2-6.78,10.31h7.45v4.09H1037Z"/><path class="cls-2" d="M1055.4,470l3-3.1c5-5.15,7.23-7.94,7.23-10.63,0-2.08-1.15-3.26-3.42-3.26a12.29,12.29,0,0,0-6.34,2.34v-4.8a17.36,17.36,0,0,1,7.23-1.64c5.41,0,8,2.95,8,6.88s-3.55,7.2-6.78,10.31h7.45v4.09H1055.4Z"/><path class="cls-2" d="M1038.31,424.09l3-3.1c5-5.15,7.23-7.94,7.23-10.63,0-2.08-1.15-3.26-3.42-3.26a12.32,12.32,0,0,0-6.34,2.34v-4.8a17.36,17.36,0,0,1,7.23-1.64c5.41,0,8,2.95,8,6.88s-3.55,7.2-6.78,10.31h7.45v4.09h-16.38Z"/><path class="cls-2" d="M1064,409l-7.3,5.44v-5.12l8-6.05h4.52v21H1064Z"/><path class="cls-2" d="M1036.47,378.15l3-3.1c5-5.15,7.23-7.94,7.23-10.63,0-2.08-1.15-3.26-3.42-3.26a12.32,12.32,0,0,0-6.34,2.34v-4.8a17.4,17.4,0,0,1,7.23-1.64c5.41,0,8,2.95,8,6.88s-3.55,7.2-6.78,10.31h7.45v4.09h-16.38Z"/><path class="cls-2" d="M1055,367.94c0-6,2.49-10.88,9-10.88s9,4.84,9,10.88-2.49,10.72-9,10.72S1055,374,1055,367.94Zm12.38,0c0-4.6-1.05-6.88-3.39-6.88s-3.42,2.28-3.42,6.88,1.08,6.72,3.42,6.72S1067.38,372.55,1067.38,367.94Z"/><path class="cls-2" d="M1045.25,317.11l-7.29,5.44v-5.12l8-6.05h4.51v21h-5.25Z"/><path class="cls-2" d="M1066.53,323.12a5.71,5.71,0,0,1-5,2.66c-5,0-7.58-3.1-7.58-6.85,0-4.41,3.23-7.84,8.61-7.84,5.85,0,8.8,4.07,8.8,10.56,0,6.31-3.52,11.07-10.37,11.07a12.9,12.9,0,0,1-6.24-1.6v-4.6a10,10,0,0,0,5.92,2.17C1064.52,328.69,1066.31,325.91,1066.53,323.12Zm-.32-3c-.09-3.13-1.34-5.08-3.64-5.08a3.52,3.52,0,0,0-3.49,3.68,3.32,3.32,0,0,0,3.39,3.61A4.17,4.17,0,0,0,1066.21,320.08Z"/><path class="cls-2" d="M1045.16,271.17l-7.3,5.44v-5.12l8-6.05h4.52v21h-5.25Z"/><path class="cls-2" d="M1058,275.23a4.76,4.76,0,0,1-3.39-4.35c0-3.58,3-5.7,8-5.7s8,2.12,8,5.7a5,5,0,0,1-3.23,4.35c.8.16,4.12,1.79,4.12,5.12,0,3.87-3.39,6.43-8.89,6.43s-8.87-2.56-8.87-6.43C1053.73,277,1057.13,275.39,1058,275.23Zm4.58,7.68c2,0,3.39-1.12,3.39-2.94s-1.47-3-3.42-3a3.07,3.07,0,0,0-3.36,3C1059.21,281.79,1060.65,282.91,1062.6,282.91Zm2.81-11.61c0-1.41-1.21-2.21-2.81-2.21s-2.82.8-2.82,2.21,1.25,2.27,2.82,2.27S1065.41,272.7,1065.41,271.3Z"/><path class="cls-2" d="M1045.57,225.23l-7.29,5.44v-5.12l8-6.05h4.51v21h-5.25Z"/><path class="cls-2" d="M1063.88,223.66H1053.8V219.5h17.44l-10.27,21h-5.54Z"/><path class="cls-2" d="M1045.19,179.29l-7.3,5.44v-5.12l8-6.05h4.51v21h-5.25Z"/><path class="cls-2" d="M1058.63,182.84a5.91,5.91,0,0,1,5.06-2.66c5,0,7.58,3.11,7.58,7,0,4.29-3.36,7.74-8.54,7.74-5.92,0-9-4.06-9-10,0-6.94,3.64-11.68,10.43-11.68a16.73,16.73,0,0,1,6.11,1.12v4.55a11.6,11.6,0,0,0-5.76-1.6A5.62,5.62,0,0,0,1058.63,182.84Zm.29,3.07c.09,3.07,1.41,5,3.71,5a3.48,3.48,0,0,0,3.46-3.61,3.31,3.31,0,0,0-3.4-3.62A4.3,4.3,0,0,0,1058.92,185.91Z"/><path class="cls-2" d="M1045.77,133.35l-7.3,5.44v-5.12l8-6H1051v21h-5.24Z"/><path class="cls-2" d="M1054.73,143.27a18.66,18.66,0,0,0,6.59,1.69c2.65,0,3.77-1.31,3.77-3.1s-1.34-3-4.12-3a26.62,26.62,0,0,0-5.51.68l1.38-11.94h13.09v4.16h-9.57l-.39,3.3a15.63,15.63,0,0,1,2.34-.16c4.51,0,8.22,1.79,8.22,6.78,0,4.29-3.71,7.26-8.8,7.26a21.56,21.56,0,0,1-7-1.31Z"/><path class="cls-2" d="M1045,87.41l-7.3,5.44V87.73l8-6h4.52v21H1045Z"/><path class="cls-2" d="M1052.71,93.9l9.18-12.22h5.92V92.94h4v3.68h-4v6.08h-5.24V96.62h-9.86Zm9.82-1V86.16l-5,6.78Z"/><line class="cls-3" x1="57.26" y1="643.46" x2="62.93" y2="643.46"/><line class="cls-3" x1="57.26" y1="597.54" x2="62.93" y2="597.54"/><line class="cls-3" x1="57.26" y1="551.62" x2="62.93" y2="551.62"/><line class="cls-3" x1="57.26" y1="505.7" x2="62.93" y2="505.7"/><line class="cls-3" x1="57.26" y1="459.78" x2="62.93" y2="459.78"/><line class="cls-3" x1="57.26" y1="413.86" x2="62.93" y2="413.86"/><line class="cls-3" x1="57.26" y1="367.94" x2="62.93" y2="367.94"/><line class="cls-3" x1="57.26" y1="322.02" x2="62.93" y2="322.02"/><line class="cls-3" x1="57.26" y1="276.09" x2="62.93" y2="276.09"/><line class="cls-3" x1="57.26" y1="230.17" x2="62.93" y2="230.17"/><line class="cls-3" x1="57.26" y1="184.25" x2="62.93" y2="184.25"/><line class="cls-3" x1="57.26" y1="138.33" x2="62.93" y2="138.33"/><line class="cls-3" x1="57.26" y1="92.41" x2="62.93" y2="92.41"/><path class="cls-2" d="M23.91,638.69l-7.29,5.44V639l8-6h4.51v21H23.91Z"/><path class="cls-2" d="M48.55,633.38,42.41,641c2.75.48,6.27,2.11,6.27,6.4,0,3.9-3.2,6.91-8.7,6.91a14.76,14.76,0,0,1-6.88-1.57v-4.89a11.28,11.28,0,0,0,6.72,2.46c2.14,0,3.45-1,3.45-2.88,0-2.49-3.52-3.48-7.19-3.55l4.86-6.75H33.1V633H48.55Z"/><path class="cls-2" d="M23.75,592.75l-7.29,5.44v-5.12l8-6.05H29v21H23.75Z"/><path class="cls-2" d="M32.2,607.85l3-3.1c5-5.16,7.23-7.94,7.23-10.63,0-2.08-1.15-3.26-3.42-3.26a12.32,12.32,0,0,0-6.34,2.34v-4.8A17.41,17.41,0,0,1,40,586.76c5.4,0,8,3,8,6.88s-3.55,7.2-6.78,10.31h7.46V608H32.2Z"/><path class="cls-2" d="M25,546.81l-7.3,5.44v-5.12l8-6h4.51v21H25Z"/><path class="cls-2" d="M40.84,546.81l-7.29,5.44v-5.12l8-6h4.51v21H40.84Z"/><path class="cls-2" d="M23.19,500.87l-7.29,5.44v-5.12l8-6.05h4.51v21H23.19Z"/><path class="cls-2" d="M31.8,505.76c0-6.05,2.5-10.88,9-10.88s9,4.83,9,10.88-2.5,10.72-9,10.72S31.8,511.84,31.8,505.76Zm12.39,0c0-4.6-1.06-6.88-3.4-6.88s-3.42,2.28-3.42,6.88,1.09,6.72,3.42,6.72S44.19,510.37,44.19,505.76Z"/><path class="cls-2" d="M36.71,460.94a5.71,5.71,0,0,1-5,2.66c-5.05,0-7.58-3.11-7.58-6.85,0-4.41,3.23-7.84,8.61-7.84,5.85,0,8.8,4.07,8.8,10.56,0,6.31-3.52,11.07-10.37,11.07a12.9,12.9,0,0,1-6.24-1.6v-4.61a9.88,9.88,0,0,0,5.92,2.18C34.7,466.51,36.49,463.73,36.71,460.94Zm-.32-3c-.09-3.13-1.34-5.08-3.64-5.08a3.52,3.52,0,0,0-3.49,3.68,3.32,3.32,0,0,0,3.39,3.61A4.17,4.17,0,0,0,36.39,457.9Z"/><path class="cls-2" d="M28.2,413.05a4.76,4.76,0,0,1-3.39-4.35c0-3.58,3-5.7,8-5.7s8,2.12,8,5.7a5,5,0,0,1-3.23,4.35c.8.16,4.12,1.79,4.12,5.12,0,3.87-3.39,6.43-8.89,6.43s-8.87-2.56-8.87-6.43C23.91,414.84,27.31,413.21,28.2,413.05Zm4.58,7.68c2,0,3.39-1.12,3.39-2.94s-1.47-3-3.42-3a3.07,3.07,0,0,0-3.36,3C29.39,419.61,30.83,420.73,32.78,420.73Zm2.81-11.61c0-1.41-1.21-2.21-2.81-2.21s-2.82.8-2.82,2.21,1.25,2.27,2.82,2.27S35.59,410.52,35.59,409.12Z"/><path class="cls-2" d="M34.06,361.48H24v-4.16H41.42l-10.27,21H25.61Z"/><path class="cls-2" d="M28.81,320.66A5.91,5.91,0,0,1,33.87,318c5.05,0,7.58,3.11,7.58,7,0,4.29-3.36,7.74-8.54,7.74-5.92,0-9-4.06-9-10,0-6.94,3.65-11.68,10.43-11.68a16.73,16.73,0,0,1,6.11,1.12v4.55a11.6,11.6,0,0,0-5.76-1.6A5.63,5.63,0,0,0,28.81,320.66Zm.29,3.07c.1,3.07,1.41,5,3.71,5a3.48,3.48,0,0,0,3.46-3.61,3.31,3.31,0,0,0-3.4-3.62A4.31,4.31,0,0,0,29.1,323.73Z"/><path class="cls-2" d="M24.91,281.09a18.72,18.72,0,0,0,6.59,1.69c2.65,0,3.77-1.31,3.77-3.1s-1.34-3-4.12-3a26.71,26.71,0,0,0-5.51.68L27,265.44H40.11v4.16H30.54l-.39,3.3a15.63,15.63,0,0,1,2.34-.16c4.51,0,8.22,1.79,8.22,6.78,0,4.29-3.71,7.26-8.8,7.26a21.61,21.61,0,0,1-7-1.31Z"/><path class="cls-2" d="M22.89,231.72l9.18-12.22H38v11.26h4v3.68H38v6.08H32.75v-6.08H22.89Zm9.82-1V224l-5,6.78Z"/><path class="cls-2" d="M40.65,174l-6.14,7.61c2.75.48,6.27,2.11,6.27,6.4,0,3.91-3.2,6.91-8.71,6.91a14.86,14.86,0,0,1-6.87-1.56v-4.9a11.25,11.25,0,0,0,6.71,2.46c2.15,0,3.46-1,3.46-2.88,0-2.49-3.52-3.48-7.2-3.55L33,177.72H25.2v-4.16H40.65Z"/><path class="cls-2" d="M24.3,148.45l3-3.1c5-5.15,7.23-7.94,7.23-10.63,0-2.08-1.15-3.26-3.42-3.26a12.29,12.29,0,0,0-6.34,2.34V129A17.36,17.36,0,0,1,32,127.36c5.41,0,8,3,8,6.88s-3.55,7.2-6.78,10.31h7.45v4.09H24.3Z"/><path class="cls-2" d="M32.94,87.41l-7.3,5.44V87.73l8-6h4.52v21H32.94Z"/></svg>